<?xml version="1.0" encoding="utf-8"?>
<!-- Generator: Adobe Illustrator 27.0.0, SVG Export Plug-In . SVG Version: 6.00 Build 0)  -->
<svg version="1.1" id="圖層_1" xmlns="http://www.w3.org/2000/svg" xmlns:xlink="http://www.w3.org/1999/xlink" x="0px" y="0px"
	 viewBox="0 0 512 512" style="enable-background:new 0 0 512 512;" xml:space="preserve">
<style type="text/css">
	.st0{fill:#DB4437;}
</style>
<path class="st0" d="M256,8C119.1,8,8,119.1,8,256s111.1,248,248,248s248-111.1,248-248S392.9,8,256,8z M185.3,380
	c-68.5,0-124-55.5-124-124s55.5-124,124-124c31.3,0,60.1,11,83,32.3l-33.6,32.6c-13.2-12.9-31.3-19.1-49.4-19.1
	c-42.9,0-77.2,35.5-77.2,78.1s34.2,78.1,77.2,78.1c32.6,0,64.9-19.1,70.1-53.3h-70.1v-42.6h116.9c1.3,6.8,1.9,13.8,1.9,20.7
	C304.1,329.6,256.6,380,185.3,380z M415.5,273.8v35.5H380v-35.5h-35.5v-35.5H380v-35.5h35.5v35.5h35.2v35.5H415.5z"/>
</svg>
